<?xml version="1.0" standalone="no"?>
<!DOCTYPE svg PUBLIC "-//W3C//DTD SVG 20010904//EN"
 "http://www.w3.org/TR/2001/REC-SVG-20010904/DTD/svg10.dtd">
<svg version="1.0" xmlns="http://www.w3.org/2000/svg"
 width="790.000000pt" height="844.000000pt" viewBox="0 0 790.000000 844.000000"
 preserveAspectRatio="xMidYMid meet">

<g transform="translate(0.000000,844.000000) scale(0.100000,-0.100000)"
fill="#000000" stroke="none">
<path d="M3710 7533 c-359 -37 -609 -148 -825 -367 -144 -145 -221 -269 -266
-429 -20 -70 -23 -104 -23 -227 1 -164 17 -256 63 -376 66 -170 202 -375 297
-444 30 -23 57 -47 58 -53 2 -7 18 -59 35 -117 27 -92 45 -182 65 -322 4 -29
1 -40 -12 -47 -10 -5 -96 -32 -192 -60 -515 -148 -872 -308 -1037 -464 -66
-62 -93 -111 -93 -169 0 -132 163 -216 487 -252 169 -19 461 -27 651 -18 84 4
157 6 162 4 6 -2 8 -45 4 -115 -9 -170 -2 -177 309 -314 318 -140 761 -300
908 -328 45 -8 109 -15 143 -15 53 0 66 4 85 24 46 49 95 240 111 430 12 150
4 179 -53 200 -98 35 -149 29 -167 -20 l-10 -25 -23 27 c-13 15 -39 32 -58 38
l-34 11 -3 111 c-2 81 1 114 10 121 7 5 121 31 253 58 1053 210 1872 523 2023
775 107 179 -51 298 -465 347 -104 13 -143 21 -143 30 0 23 36 85 79 137 45
53 51 84 21 111 -43 39 -196 -1 -292 -77 -22 -17 -65 -64 -94 -104 l-53 -72
-113 -6 c-62 -3 -169 -7 -236 -8 l-124 -3 7 65 c3 36 29 166 56 289 68 308 76
376 60 498 -17 131 -52 247 -111 371 -64 135 -142 253 -218 330 -73 74 -244
202 -347 261 -78 45 -304 131 -420 161 -132 34 -334 48 -475 33z m401 -93
c371 -76 719 -295 892 -561 97 -149 152 -285 183 -446 26 -139 16 -245 -49
-538 -31 -137 -58 -263 -60 -280 -3 -16 -2 8 2 55 18 237 -2 427 -54 530 -55
108 -149 178 -254 187 -70 7 -103 -8 -160 -73 -59 -67 -83 -141 -106 -336 -6
-43 -8 -46 -28 -39 -19 7 -23 21 -34 106 -24 192 -87 340 -180 425 -117 107
-248 101 -352 -16 -49 -56 -67 -111 -83 -249 -34 -314 66 -875 170 -943 21
-14 51 -17 160 -18 117 -1 137 -4 160 -21 39 -28 69 -36 79 -21 4 7 8 36 9 63
0 28 10 102 22 165 13 65 26 176 29 258 3 78 9 142 13 142 26 0 40 -33 55
-140 29 -204 33 -213 115 -255 88 -45 177 -124 243 -215 22 -30 41 -57 43 -58
1 -2 11 -1 22 2 15 5 21 18 25 54 2 26 17 81 32 122 15 41 35 113 45 160 l18
85 1 -100 c1 -108 20 -203 51 -264 15 -31 30 -43 67 -57 128 -46 183 -80 183
-111 0 -16 -50 -92 -72 -111 -11 -8 -25 -2 -63 29 -69 55 -121 81 -157 77 -53
-5 -56 -27 -16 -115 44 -94 62 -149 55 -167 -5 -13 -151 -41 -166 -32 -4 3
-20 36 -35 75 -25 65 -64 121 -84 121 -4 0 -16 -6 -26 -13 -13 -9 -20 -38 -28
-113 l-11 -101 -91 5 c-130 7 -131 8 -146 89 -22 124 -61 183 -110 168 -26 -8
-29 -23 -31 -140 -1 -55 -5 -105 -10 -110 -9 -12 -196 -2 -209 11 -4 5 -20 58
-34 117 -30 125 -40 147 -65 147 -32 0 -41 -25 -49 -136 l-7 -109 -52 3 c-28
2 -64 7 -80 11 l-28 7 -7 155 c-10 205 -17 243 -46 247 -19 3 -28 -8 -58 -72
-20 -42 -41 -76 -46 -76 -5 0 -7 8 -4 18 15 49 46 242 57 343 20 204 0 343
-73 489 -56 111 -140 198 -224 230 -122 47 -270 24 -327 -51 -68 -91 -55 -184
46 -318 38 -51 39 -55 22 -68 -28 -20 -46 -16 -110 22 -139 84 -217 178 -320
389 -68 137 -94 236 -102 386 -7 138 6 224 49 330 98 237 254 402 506 533 145
75 320 123 522 141 87 8 274 -4 371 -24z m124 -1070 c92 -146 140 -374 139
-665 -1 -264 -28 -388 -78 -369 -16 6 -17 15 -12 68 15 141 18 428 6 522 -18
143 -55 285 -101 385 -34 73 -39 91 -29 104 17 20 44 4 75 -45z m633 -100 c77
-79 124 -207 143 -395 10 -92 9 -129 -4 -226 -24 -175 -66 -289 -108 -289 -32
0 -32 21 0 116 89 266 54 607 -79 757 -29 34 -37 57 -23 70 14 15 35 5 71 -33z
m-1434 -235 l38 -16 -6 -62 c-4 -34 -13 -197 -21 -362 -8 -165 -17 -329 -21
-365 -13 -145 -45 -446 -50 -461 -3 -11 -26 -20 -74 -28 -38 -6 -73 -11 -78
-11 -5 0 -12 80 -15 178 -10 282 -43 495 -97 633 -11 27 -20 53 -20 58 0 4 21
2 48 -4 31 -8 53 -9 65 -3 29 15 76 71 77 90 0 9 -23 47 -50 83 -28 37 -57 83
-65 102 -48 114 26 199 165 189 36 -2 82 -11 104 -21z m2553 -327 c-99 -122
-117 -271 -53 -429 13 -33 20 -59 16 -59 -4 0 -67 -11 -141 -25 -197 -37 -183
-41 -176 58 13 187 94 344 222 433 45 30 119 60 158 63 5 1 -7 -18 -26 -41z
m-387 -261 c0 -6 -7 -44 -15 -82 -8 -39 -15 -102 -15 -141 l0 -71 -60 -12
c-69 -14 -91 -9 -140 30 -19 15 -62 35 -95 44 -33 10 -68 24 -77 34 -19 18
-52 161 -40 172 12 12 228 33 375 37 48 1 67 -2 67 -11z m512 -8 c129 -14 268
-49 339 -84 46 -24 51 -29 34 -36 -26 -10 -415 -79 -448 -79 -22 0 -29 8 -47
57 -12 32 -24 79 -27 105 -7 56 -15 55 149 37z m418 -198 c0 -10 -19 -39 -41
-65 -229 -260 -1233 -591 -2349 -775 -1046 -173 -1976 -181 -2236 -20 -62 38
-88 30 356 109 157 28 558 100 892 161 334 60 613 109 620 109 7 0 18 -10 23
-22 17 -40 110 -68 221 -68 45 0 54 3 59 21 7 21 8 21 29 -6 24 -30 60 -39
203 -50 117 -9 139 -4 148 35 l7 30 28 -30 c24 -26 35 -30 80 -30 28 0 94 -5
147 -11 109 -13 113 -12 128 59 l11 47 17 -32 c26 -49 45 -55 134 -44 211 27
219 34 178 166 -14 48 -25 89 -22 91 2 2 28 -14 58 -36 75 -57 89 -53 166 45
34 44 65 93 68 108 4 16 13 31 21 34 13 5 1017 190 1042 192 6 1 12 -7 12 -18z
m-3398 -268 c2 -112 -2 -256 -7 -261 -3 -3 -1253 -232 -1268 -232 -15 0 22 56
65 96 118 112 360 232 748 371 172 61 403 131 438 132 21 1 22 -2 24 -106z
m1102 -649 c8 -21 6 -235 -2 -257 -7 -16 -10 -16 -27 -3 -18 13 -20 29 -23
132 -3 104 -2 119 14 131 23 17 31 16 38 -3z m-878 -146 c34 -56 81 -104 179
-187 102 -86 118 -95 228 -138 90 -34 92 -35 107 -15 9 10 24 62 34 115 10 54
22 97 26 97 4 0 21 -12 37 -27 27 -25 30 -36 36 -112 9 -112 39 -157 80 -117
7 8 22 60 31 115 22 124 39 129 46 13 6 -102 20 -121 77 -104 64 20 67 24 73
114 6 76 7 81 18 55 7 -16 12 -57 12 -92 0 -88 12 -117 48 -113 25 3 30 12 64
108 20 58 38 109 40 114 2 5 19 5 37 1 l34 -7 -7 -98 c-11 -169 -61 -385 -92
-397 -9 -3 -55 0 -102 6 -222 31 -1121 377 -1197 461 -15 16 -15 29 -6 112 16
132 13 126 79 131 31 2 65 4 74 5 11 1 28 -14 44 -40z"/>
<path d="M4410 7028 c-19 -21 -20 -21 -39 -3 -27 24 -55 13 -49 -20 3 -16 -2
-33 -14 -47 -25 -29 -19 -42 23 -48 27 -4 38 -12 53 -43 14 -29 23 -37 40 -35
16 2 22 11 24 36 3 26 8 32 27 32 21 0 35 17 35 41 0 5 -11 15 -25 21 -17 8
-25 19 -24 32 4 52 -19 68 -51 34z"/>
<path d="M4548 5432 c-36 -7 -19 -39 31 -60 107 -44 170 -134 187 -264 8 -60
18 -78 45 -78 26 0 32 34 19 112 -24 154 -104 252 -230 285 -19 5 -43 7 -52 5z"/>
<path d="M4535 5316 c-16 -7 -46 -31 -66 -53 -61 -67 -75 -194 -26 -228 33
-23 56 -18 93 19 l33 33 11 -32 c14 -44 57 -85 87 -85 14 0 37 13 54 29 26 26
29 36 29 93 0 101 -57 199 -133 227 -35 14 -45 13 -82 -3z"/>
<path d="M1888 2994 c-147 -35 -283 -138 -338 -256 -86 -183 -48 -382 98 -519
57 -54 95 -78 243 -151 243 -119 276 -152 267 -263 -6 -66 -28 -101 -87 -133
-88 -50 -214 -37 -388 40 -52 22 -97 38 -100 35 -3 -4 -21 -71 -40 -149 -18
-79 -36 -151 -39 -161 -4 -14 11 -25 79 -57 391 -184 831 -33 922 315 21 83
20 219 -4 294 -48 154 -138 240 -381 359 -204 101 -250 138 -250 199 0 52 27
86 85 108 69 27 214 17 333 -23 65 -21 94 -27 97 -19 7 21 85 315 85 321 0 8
-130 45 -216 62 -94 18 -290 17 -366 -2z"/>
<path d="M4391 2994 c-191 -51 -341 -223 -400 -459 -55 -220 -55 -535 0 -755
30 -118 100 -251 172 -324 133 -136 333 -187 531 -136 105 27 169 63 244 138
150 152 223 423 208 777 -12 300 -85 507 -224 637 -105 98 -215 138 -377 137
-55 0 -124 -7 -154 -15z m216 -335 c74 -28 123 -114 149 -262 23 -130 15 -453
-13 -547 -43 -146 -95 -200 -193 -200 -78 0 -115 26 -157 110 -49 99 -65 197
-65 395 0 188 15 288 59 387 47 106 131 151 220 117z"/>
<path d="M2810 2161 l0 -831 180 0 180 0 0 324 0 323 114 7 c192 11 297 50
403 149 156 146 196 384 98 584 -59 120 -179 211 -327 249 -48 12 -133 17
-355 21 l-293 5 0 -831z m553 465 c18 -7 45 -28 61 -45 24 -25 31 -42 34 -89
8 -116 -36 -153 -190 -160 l-98 -4 0 156 0 156 80 0 c46 0 94 -6 113 -14z"/>
<path d="M5190 2820 l0 -170 230 0 230 0 0 -660 0 -660 180 0 180 0 0 660 0
660 225 0 225 0 0 170 0 170 -635 0 -635 0 0 -170z"/>
<path d="M1464 945 c19 -156 21 -165 42 -165 18 0 25 12 44 80 13 44 26 78 29
74 3 -3 15 -38 26 -77 17 -59 25 -73 43 -75 12 -2 22 1 22 6 0 5 9 76 20 157
24 179 24 165 1 165 -24 0 -28 -12 -36 -115 -10 -121 -15 -129 -37 -57 -16 53
-22 62 -42 62 -20 0 -25 -9 -42 -67 l-18 -68 -7 45 c-3 25 -10 80 -14 123 -6
71 -9 77 -29 77 l-22 0 20 -165z"/>
<path d="M1781 952 c-28 -88 -51 -162 -51 -166 0 -4 10 -6 22 -4 16 2 26 16
38 53 l17 50 49 3 50 3 18 -56 c14 -46 21 -55 40 -55 24 0 23 1 -29 163 -49
150 -55 162 -78 165 -25 3 -28 -2 -76 -156z m97 28 l21 -60 -41 0 c-33 0 -39
3 -34 16 4 9 11 36 17 60 6 24 13 44 14 44 2 0 12 -27 23 -60z"/>
<path d="M2005 1088 c4 -13 27 -87 53 -165 45 -138 47 -143 74 -143 27 0 29 5
78 158 27 87 50 162 50 166 0 4 -10 6 -22 4 -19 -3 -28 -22 -64 -133 -23 -71
-45 -123 -48 -115 -2 8 -22 68 -42 133 -34 107 -39 117 -61 117 -20 0 -23 -4
-18 -22z"/>
<path d="M2330 945 l0 -165 85 0 c78 0 85 2 85 20 0 18 -7 20 -65 20 l-65 0 0
60 0 60 65 0 c58 0 65 2 65 20 0 18 -7 20 -65 20 l-65 0 0 45 0 45 65 0 c58 0
65 2 65 20 0 18 -7 20 -85 20 l-85 0 0 -165z"/>
<path d="M2590 946 c0 -159 1 -166 20 -166 19 0 20 7 21 118 l1 117 20 -48
c27 -63 54 -62 77 3 l16 45 3 -117 3 -118 24 0 25 0 0 165 0 165 -28 0 c-26 0
-30 -6 -51 -66 -13 -36 -27 -62 -31 -57 -4 4 -17 33 -28 63 -16 46 -24 56 -46
58 l-26 3 0 -165z"/>
<path d="M2930 1098 c0 -5 -5 -7 -11 -5 -6 1 -21 -11 -32 -26 -19 -25 -22 -41
-22 -127 0 -96 1 -100 29 -129 56 -59 150 -34 176 45 15 45 9 186 -8 192 -7 2
-10 7 -7 12 2 4 -5 16 -17 26 -15 13 -19 14 -14 4 7 -13 6 -13 -6 0 -13 15
-88 21 -88 8z m66 -36 c28 -18 37 -61 35 -160 -1 -45 -34 -92 -65 -92 -44 0
-76 94 -61 181 11 61 54 96 91 71z"/>
<path d="M3150 945 c0 -157 1 -165 20 -165 18 0 20 8 22 117 l3 117 51 -114
c45 -101 55 -115 78 -118 l26 -3 0 166 0 166 -22 -3 c-22 -3 -23 -8 -28 -112
l-5 -109 -50 112 c-42 94 -53 111 -72 111 -23 0 -23 0 -23 -165z"/>
<path d="M3782 1099 c5 -3 0 -9 -11 -12 -14 -3 -19 -1 -14 6 3 7 -3 4 -15 -7
-25 -22 -31 -51 -19 -88 6 -20 26 -37 68 -59 63 -34 79 -61 60 -97 -13 -25
-63 -37 -90 -23 -29 16 -41 13 -41 -9 0 -23 36 -34 98 -31 36 2 82 53 82 91 0
47 -15 67 -73 96 -71 36 -83 57 -50 89 13 13 27 16 60 11 40 -5 43 -4 43 18 0
22 -4 24 -54 22 -30 0 -50 -4 -44 -7z"/>
<path d="M3983 1095 c-3 -9 -4 -70 -1 -135 3 -101 7 -124 24 -147 24 -32 65
-43 112 -31 50 13 62 52 62 203 0 125 0 126 -22 123 -22 -3 -23 -7 -26 -133
-3 -139 -13 -168 -55 -159 -38 7 -42 22 -45 159 -3 126 -5 135 -23 135 -11 0
-22 -7 -26 -15z"/>
<path d="M4268 1104 c-5 -4 -8 -79 -8 -166 l0 -158 25 0 c24 0 25 2 25 75 0
101 19 101 80 0 38 -64 49 -75 72 -75 32 0 37 14 11 29 -10 6 -15 11 -10 11 4
0 -9 25 -29 55 l-37 55 32 29 c40 37 42 85 6 120 -20 19 -40 25 -93 28 -37 3
-70 2 -74 -3z m123 -44 c26 -14 25 -64 -1 -83 -11 -8 -33 -14 -48 -13 -25 1
-27 4 -30 54 l-3 52 31 0 c17 0 40 -5 51 -10z"/>
<path d="M4560 945 c0 -158 1 -165 20 -165 18 0 20 7 20 75 l0 75 60 0 c53 0
60 2 60 20 0 18 -7 20 -60 20 l-60 0 0 50 0 50 65 0 c58 0 65 2 65 20 0 18 -7
20 -85 20 l-85 0 0 -165z"/>
<path d="M5110 946 l0 -166 25 0 c24 0 25 2 25 70 l0 70 41 0 c32 0 47 6 70
30 25 25 30 36 27 71 -4 58 -35 79 -122 86 l-66 6 0 -167z m122 112 c9 -7 19
-23 22 -35 9 -29 -32 -73 -68 -73 -25 0 -26 2 -26 60 0 59 0 60 28 60 16 0 35
-6 44 -12z"/>
<path d="M5390 945 l0 -165 90 0 c83 0 90 1 90 20 0 18 -7 20 -65 20 l-65 0 0
145 0 145 -25 0 -25 0 0 -165z"/>
<path d="M5660 945 c0 -157 1 -165 20 -165 18 0 20 8 22 116 l3 116 51 -113
c45 -101 54 -114 77 -117 l27 -3 0 165 0 166 -25 0 -25 0 -1 -112 -1 -113 -53
113 c-43 89 -58 112 -75 112 -19 0 -20 -6 -20 -165z"/>
<path d="M5950 945 l0 -165 91 0 c81 0 90 2 87 18 -3 14 -16 18 -66 20 l-62 3
0 59 0 60 60 0 c53 0 60 2 60 20 0 18 -7 20 -60 20 l-60 0 0 45 0 45 60 0 c53
0 60 2 60 20 0 18 -7 20 -85 20 l-85 0 0 -165z"/>
<path d="M6190 1090 c0 -17 7 -20 50 -20 l50 0 0 -145 0 -145 25 0 25 0 0 145
0 145 45 0 c38 0 45 3 45 20 0 19 -7 20 -120 20 -113 0 -120 -1 -120 -20z"/>
</g>
</svg>
